HIERARCHY
ROOT Hips
{
  OFFSET -32.5998 29.0326 120.673
  CHANNELS 6 Xposition Yposition Zposition Zrotation Xrotation Yrotation
  JOINT LeftUpLeg
  {
    OFFSET 8.64259 1.95398 -2.38835
    CHANNELS 3 Zrotation Xrotation Yrotation
    JOINT LeftLeg
    {
      OFFSET 43.7702 0 0
      CHANNELS 3 Zrotation Xrotation Yrotation
      JOINT LeftFoot
      {
        OFFSET 40.6238 0 0
        CHANNELS 3 Zrotation Xrotation Yrotation
        JOINT LeftToeBase
        {
          OFFSET 12.7242 0 0
          CHANNELS 3 Zrotation Xrotation Yrotation
          End Site
          {
            OFFSET 0 0 0
          }
        }
      }
    }
  }
  JOINT RightUpLeg
  {
    OFFSET -8.2249 1.95398 -2.59336
    CHANNELS 3 Zrotation Xrotation Yrotation
    JOINT RightLeg
    {
      OFFSET 43.5653 0 0
      CHANNELS 3 Zrotation Xrotation Yrotation
      JOINT RightFoot
      {
        OFFSET 40.6238 0 0
        CHANNELS 3 Zrotation Xrotation Yrotation
        JOINT RightToeBase
        {
          OFFSET 12.7242 0 0
          CHANNELS 3 Zrotation Xrotation Yrotation
          End Site
          {
            OFFSET 0 0 0
          }
        }
      }
    }
  }
  JOINT Spine
  {
    OFFSET 0.165834 0.87714 6.61349
    CHANNELS 3 Zrotation Xrotation Yrotation
    JOINT Spine1
    {
      OFFSET 7.38963 1.71661e-005 0
      CHANNELS 3 Zrotation Xrotation Yrotation
      JOINT Spine2
      {
        OFFSET 11.9445 1.14441e-005 0
        CHANNELS 3 Zrotation Xrotation Yrotation
        JOINT Spine3
        {
          OFFSET 14.7254 4.19617e-005 0
          CHANNELS 3 Zrotation Xrotation Yrotation
          JOINT Spine4
          {
            OFFSET 10.9679 0 0
            CHANNELS 3 Zrotation Xrotation Yrotation
            JOINT RightShoulder
            {
              OFFSET 2.46616 -1.6653 3.69651
              CHANNELS 3 Zrotation Xrotation Yrotation
              JOINT RightArm
              {
                OFFSET 13.0012 0 0
                CHANNELS 3 Zrotation Xrotation Yrotation
                JOINT RightForeArm
                {
                  OFFSET 28.7848 1.62311e-005 0
                  CHANNELS 3 Zrotation Xrotation Yrotation
                  JOINT RightHand
                  {
                    OFFSET 26.5688 1.62095e-005 0
                    CHANNELS 3 Zrotation Xrotation Yrotation
                    End Site
                    {
                      OFFSET 0 0 0
                    }
                  }
                }
              }
            }
            JOINT LeftShoulder
            {
              OFFSET 2.38034 -1.29275 -3.7523
              CHANNELS 3 Zrotation Xrotation Yrotation
              JOINT LeftArm
              {
                OFFSET 16.3182 6.07031e-005 0
                CHANNELS 3 Zrotation Xrotation Yrotation
                JOINT LeftForeArm
                {
                  OFFSET 27.0901 0 0
                  CHANNELS 3 Zrotation Xrotation Yrotation
                  JOINT LeftHand
                  {
                    OFFSET 24.5451 1.51738e-005 0
                    CHANNELS 3 Zrotation Xrotation Yrotation
                    End Site
                    {
                      OFFSET 0 0 0
                    }
                  }
                }
              }
            }
            JOINT Neck
            {
              OFFSET 5.0226 -0.0266342 0
              CHANNELS 3 Zrotation Xrotation Yrotation
              JOINT Head
              {
                OFFSET 6.69364 2.86102e-005 0
                CHANNELS 3 Zrotation Xrotation Yrotation
                End Site
                {
                  OFFSET 0 0 0
                }
              }
            }
          }
        }
      }
    }
  }
}
MOTION
Frames:	10
Frame Time:	0.0416667
225.653 100.508 232.746 -103.728 -58.8336 -101.479 -174.283 -2.95247 89.9969 -14.6604 16.3491 1.07717 65.5078 3.43874 3.61056 31.1362 0.228983 1.89602 171.525 -6.53607 85.9274 -11.6619 -15.7065 -2.31936 66.0384 -4.02004 0.286878 23.9135 1.1529 3.60417 0.140272 8.22827 -90.0287 10.4174 0.266318 -0.0804354 -1.25348 0.262502 -0.0920823 -23.7889 0.278164 0.00427977 -3.77621 0.278155 0.00427232 89.2454 -30.0875 -108.216 41.9886 -13.7678 -4.78997 -15.1031 -13.3507 -28.113 -12.0811 -0.215743 -3.28978 -89.395 -51.2433 79.8842 -20.4999 32.483 -14.8727 -2.16333 -25.3383 -26.8741 -14.7238 3.38598 -35.7022 6.7211 0.181418 -5.78532 -8.22441 1.18622 3.24469 
225.664 100.441 232.951 -104.109 -58.4054 -101.927 -174.613 -3.43264 89.5247 -14.5208 16.2439 1.34553 64.985 3.12587 3.43078 32.8634 -0.553591 5.98282 171.471 -6.2691 85.6832 -12.8372 -15.9765 -2.48181 66.4925 -4.21839 0.19551 24.0717 1.04605 3.74246 0.165398 8.25915 -90.0319 10.3557 0.314936 -0.0907861 -1.3152 0.310631 -0.104561 -23.8507 0.32766 0.00828071 -3.83801 0.327667 0.00827221 89.0059 -29.5096 -108.926 42.8206 -12.5011 -4.27267 -15.4526 -13.4707 -28.4027 -12.5034 -0.215737 -3.31803 -89.5012 -51.2579 79.7304 -20.7803 32.1798 -14.9847 -1.48497 -24.6862 -26.0498 -15.1587 3.4754 -35.4222 6.67924 0.00248683 -5.86228 -8.09737 1.02528 3.2851 
225.623 100.38 233.015 -104.259 -58.4685 -102.045 -174.477 -3.20422 89.6583 -15.1911 15.8469 1.22975 65.764 3.6927 3.30477 32.4057 0.0997081 3.68254 171.376 -5.88577 85.6218 -13.8376 -16.0534 -2.36394 66.8431 -4.4303 0.0336377 24.2685 0.981412 3.67941 0.116023 8.27324 -90.0525 10.3277 0.207112 -0.122194 -1.34328 0.201534 -0.131188 -23.8786 0.234261 -0.0542994 -3.86593 0.234254 -0.0543014 89.0522 -29.4035 -108.878 42.7161 -12.7829 -4.21503 -15.3445 -13.3747 -28.389 -12.8287 -0.218277 -3.30046 -89.3573 -51.3178 79.9545 -20.693 32.4268 -14.8847 -1.32843 -24.375 -25.955 -15.6527 3.48937 -34.4227 6.574 0.232065 -5.77219 -8.03167 1.22714 3.34605 
225.655 100.266 233.04 -104.498 -58.3093 -102.246 -173.902 -2.71966 90.0573 -16.337 16.4899 0.576711 65.9269 3.77456 3.0241 33.1442 0.26925 4.104 171.526 -5.38386 85.645 -15.1911 -15.9526 -2.4856 67.2859 -4.75417 -0.00715379 24.5659 0.818953 3.81212 0.117105 8.33456 -90.0817 10.2048 0.196009 -0.178862 -1.46611 0.187913 -0.187318 -24.0013 0.240679 -0.111693 -3.98868 0.240691 -0.111685 89.3881 -29.2091 -108.29 42.7011 -13.286 -4.43853 -15.3703 -13.2819 -28.4691 -11.9225 -0.173065 -3.62434 -89.4734 -51.5106 79.8222 -19.9772 32.857 -15.2039 -1.673 -24.7147 -25.8373 -15.9915 3.4161 -33.1188 6.78587 0.196784 -5.489 -7.71154 1.16038 3.23284 
225.69 100.112 233.009 -104.803 -57.9821 -102.68 -173.95 -2.43785 89.8042 -17.4501 16.4312 0.503113 66.5253 4.4248 4.20552 33.1348 0.142529 4.4387 171.327 -4.51798 85.2853 -17.2066 -16.3801 -2.40504 68.0768 -5.30245 -0.146335 24.7203 0.746879 3.8379 0.14836 8.39188 -90.0654 10.0903 0.265842 -0.152015 -1.58063 0.258886 -0.163567 -24.116 0.299235 -0.0650909 -4.10334 0.29922 -0.0651024 88.9715 -29.6849 -108.921 42.242 -12.5632 -3.83307 -15.6695 -12.9873 -29.1118 -11.481 -0.146276 -3.84076 -89.6283 -51.2262 79.5365 -19.6514 33.1934 -15.5674 -1.44732 -24.0423 -24.9202 -16.8289 3.42778 -31.5937 6.60998 0.203331 -5.67034 -7.21308 1.21287 3.08955 
225.841 99.8758 232.947 -104.493 -57.1966 -102.827 -174.496 -1.74757 88.9486 -18.9492 14.841 0.710118 67.0254 4.54282 3.52926 33.3252 -0.42714 6.21969 171.371 -2.72308 84.7436 -20.3256 -16.8705 -2.58025 69.0676 -5.89911 0.0306761 25.0043 0.74688 3.41629 0.195632 8.43045 -90.0608 10.0133 0.362155 -0.150557 -1.65762 0.355158 -0.166363 -24.1932 0.390643 -0.0347661 -4.18053 0.39065 -0.0347663 89.3296 -28.9077 -108.531 42.5355 -12.1659 -3.80342 -15.5903 -12.8848 -29.0973 -12.3461 -0.163014 -3.77955 -89.8522 -51.5397 79.2707 -19.4243 32.9268 -15.792 -0.849997 -22.8807 -23.9283 -17.5169 3.30391 -29.5029 6.29918 0.204789 -5.50696 -7.29732 1.14246 3.75615 
225.672 99.6011 232.835 -105.237 -57.055 -103.609 -173.992 -1.41187 89.2759 -20.5238 15.3314 0.228868 67.8632 5.2208 3.93444 33.6907 -0.00724223 5.53218 171.306 -1.90181 84.6199 -22.8125 -17.3242 -2.47996 69.8632 -6.60949 -0.919002 24.9188 0.726677 3.61534 0.159335 8.52891 -90.0445 9.81624 0.297527 -0.112207 -1.85467 0.292305 -0.125197 -24.3901 0.317462 -0.0175971 -4.37746 0.317489 -0.0175992 89.2056 -29.1909 -108.662 42.4802 -11.6976 -3.8809 -15.9676 -13.2968 -29.1482 -11.6977 -0.125954 -4.07622 -89.6234 -51.3609 79.571 -19.5527 32.3898 -15.7747 -0.155001 -21.4348 -23.029 -18.7457 3.29381 -27.5859 6.64406 0.270071 -5.11408 -7.39933 1.17569 2.77672 
225.475 99.4082 232.749 -106.03 -56.9278 -104.34 -173.918 -1.21422 89.3527 -21.9178 15.4676 0.253881 68.4287 5.50647 3.66331 33.9352 -0.0389887 5.93163 171.477 -1.38242 84.6735 -24.8765 -16.5042 -2.5709 70.7034 -6.99897 -0.151125 24.8795 0.844548 3.25627 0.12457 8.60633 -90.0786 9.66136 0.212817 -0.172579 -2.00959 0.205026 -0.181783 -24.5448 0.254846 -0.100636 -4.53219 0.254844 -0.100644 89.1673 -28.8276 -108.89 42.5638 -11.3622 -3.5155 -15.6096 -12.6458 -29.1894 -12.8299 -0.223437 -3.26184 -89.733 -51.584 79.4553 -19.5506 31.7748 -15.819 0.554929 -19.9841 -21.6573 -19.5272 3.15077 -25.6147 5.86078 0.568139 -5.47416 -6.1046 1.52207 3.33646 
225.193 99.3026 232.612 -105.919 -56.5499 -104.251 -173.428 -1.26178 89.8544 -22.2255 15.1433 -0.154614 68.8467 5.66472 3.35403 34.0696 0.140074 5.60662 171.772 -0.941345 84.9103 -25.9395 -16.691 -2.67435 71.0198 -7.3967 -0.663304 25.2615 0.541405 3.76495 0.167038 8.64826 -90.0551 9.57757 0.308218 -0.132899 -2.09334 0.302068 -0.146345 -24.6288 0.333926 -0.0341222 -4.61614 0.3339 -0.0341319 89.1457 -29.6111 -108.607 42.1809 -11.1354 -3.3082 -16.3171 -13.604 -29.8272 -12.5899 -0.211565 -3.3346 -89.6551 -50.5852 79.3654 -20.2245 31.1681 -15.6464 1.27002 -18.093 -20.664 -20.0294 2.81116 -22.8924 6.01962 0.331152 -5.87203 -6.14135 1.37369 3.21868 
224.955 99.1941 232.493 -105.145 -55.8663 -103.877 -173.502 -0.652142 89.4387 -22.735 14.3151 -0.202336 68.9135 5.41163 2.70257 34.6643 0.195367 6.21534 172.227 0.112772 84.9016 -27.4092 -16.2921 -3.0057 71.5289 -7.66767 -0.0391508 25.3975 0.532196 3.59411 0.168651 8.62773 -90.0449 9.61861 0.316108 -0.113394 -2.05231 0.310818 -0.127201 -24.5878 0.335579 -0.0131471 -4.57512 0.335567 -0.0131559 89.2031 -28.9635 -108.761 44.3761 -6.36277 -2.47321 -20.6909 -17.6028 -32.6097 -8.08623 -0.119948 -3.67606 -89.3495 -50.8929 79.8815 -19.9566 31.1947 -15.2031 1.29961 -17.4335 -19.6972 -19.9873 2.43566 -20.5618 5.90276 0.616011 -5.45721 -6.48909 1.55528 3.36411 
